<svg width="944" height="100" viewBox="0 0 944 100" fill="none" xmlns="http://www.w3.org/2000/svg">
<path d="M98.5 50C98.5 76.7858 76.7858 98.5 50 98.5C23.2142 98.5 1.5 76.7858 1.5 50C1.5 23.2142 23.2142 1.5 50 1.5C76.7858 1.5 98.5 23.2142 98.5 50Z" stroke="#0182FE" stroke-width="3"/>
<circle cx="472" cy="50" r="48.5" stroke="#0182FE" stroke-width="3"/>
<circle cx="894" cy="50" r="48.5" stroke="#0182FE" stroke-width="3"/>
<path d="M100 48.5C99.1716 48.5 98.5 49.1716 98.5 50C98.5 50.8284 99.1716 51.5 100 51.5L100 48.5ZM422 50L407 41.3397L407 58.6603L422 50ZM111.5 51.5C112.328 51.5 113 50.8284 113 50C113 49.1716 112.328 48.5 111.5 48.5L111.5 51.5ZM134.5 48.5C133.672 48.5 133 49.1716 133 50C133 50.8284 133.672 51.5 134.5 51.5L134.5 48.5ZM157.5 51.5C158.328 51.5 159 50.8284 159 50C159 49.1716 158.328 48.5 157.5 48.5L157.5 51.5ZM180.5 48.5C179.672 48.5 179 49.1716 179 50C179 50.8284 179.672 51.5 180.5 51.5L180.5 48.5ZM203.5 51.5C204.328 51.5 205 50.8284 205 50C205 49.1716 204.328 48.5 203.5 48.5L203.5 51.5ZM226.5 48.5C225.672 48.5 225 49.1716 225 50C225 50.8284 225.672 51.5 226.5 51.5L226.5 48.5ZM249.5 51.5C250.328 51.5 251 50.8284 251 50C251 49.1716 250.328 48.5 249.5 48.5L249.5 51.5ZM272.5 48.5C271.672 48.5 271 49.1716 271 50C271 50.8284 271.672 51.5 272.5 51.5L272.5 48.5ZM295.5 51.5C296.328 51.5 297 50.8284 297 50C297 49.1716 296.328 48.5 295.5 48.5L295.5 51.5ZM318.5 48.5C317.672 48.5 317 49.1716 317 50C317 50.8284 317.672 51.5 318.5 51.5L318.5 48.5ZM341.5 51.5C342.328 51.5 343 50.8284 343 50C343 49.1716 342.328 48.5 341.5 48.5L341.5 51.5ZM364.5 48.5C363.672 48.5 363 49.1716 363 50C363 50.8284 363.672 51.5 364.5 51.5L364.5 48.5ZM387.5 51.5C388.328 51.5 389 50.8284 389 50C389 49.1716 388.328 48.5 387.5 48.5L387.5 51.5ZM410.5 48.5C409.672 48.5 409 49.1716 409 50C409 50.8284 409.672 51.5 410.5 51.5L410.5 48.5ZM100 51.5L111.5 51.5L111.5 48.5L100 48.5L100 51.5ZM134.5 51.5L157.5 51.5L157.5 48.5L134.5 48.5L134.5 51.5ZM180.5 51.5L203.5 51.5L203.5 48.5L180.5 48.5L180.5 51.5ZM226.5 51.5L249.5 51.5L249.5 48.5L226.5 48.5L226.5 51.5ZM272.5 51.5L295.5 51.5L295.5 48.5L272.5 48.5L272.5 51.5ZM318.5 51.5L341.5 51.5L341.5 48.5L318.5 48.5L318.5 51.5ZM364.5 51.5L387.5 51.5L387.5 48.5L364.5 48.5L364.5 51.5Z" fill="#0182FE"/>
<path d="M522 48.5C521.172 48.5 520.5 49.1716 520.5 50C520.5 50.8284 521.172 51.5 522 51.5L522 48.5ZM844 50L829 41.3397L829 58.6603L844 50ZM533.5 51.5C534.328 51.5 535 50.8284 535 50C535 49.1716 534.328 48.5 533.5 48.5L533.5 51.5ZM556.5 48.5C555.672 48.5 555 49.1716 555 50C555 50.8284 555.672 51.5 556.5 51.5L556.5 48.5ZM579.5 51.5C580.328 51.5 581 50.8284 581 50C581 49.1716 580.328 48.5 579.5 48.5L579.5 51.5ZM602.5 48.5C601.672 48.5 601 49.1716 601 50C601 50.8284 601.672 51.5 602.5 51.5L602.5 48.5ZM625.5 51.5C626.328 51.5 627 50.8284 627 50C627 49.1716 626.328 48.5 625.5 48.5L625.5 51.5ZM648.5 48.5C647.672 48.5 647 49.1716 647 50C647 50.8284 647.672 51.5 648.5 51.5L648.5 48.5ZM671.5 51.5C672.328 51.5 673 50.8284 673 50C673 49.1716 672.328 48.5 671.5 48.5L671.5 51.5ZM694.5 48.5C693.672 48.5 693 49.1716 693 50C693 50.8284 693.672 51.5 694.5 51.5L694.5 48.5ZM717.5 51.5C718.328 51.5 719 50.8284 719 50C719 49.1716 718.328 48.5 717.5 48.5L717.5 51.5ZM740.5 48.5C739.672 48.5 739 49.1716 739 50C739 50.8284 739.672 51.5 740.5 51.5L740.5 48.5ZM763.5 51.5C764.328 51.5 765 50.8284 765 50C765 49.1716 764.328 48.5 763.5 48.5L763.5 51.5ZM786.5 48.5C785.672 48.5 785 49.1716 785 50C785 50.8284 785.672 51.5 786.5 51.5L786.5 48.5ZM809.5 51.5C810.328 51.5 811 50.8284 811 50C811 49.1716 810.328 48.5 809.5 48.5L809.5 51.5ZM832.5 48.5C831.672 48.5 831 49.1716 831 50C831 50.8284 831.672 51.5 832.5 51.5L832.5 48.5ZM522 51.5L533.5 51.5L533.5 48.5L522 48.5L522 51.5ZM556.5 51.5L579.5 51.5L579.5 48.5L556.5 48.5L556.5 51.5ZM602.5 51.5L625.5 51.5L625.5 48.5L602.5 48.5L602.5 51.5ZM648.5 51.5L671.5 51.5L671.5 48.5L648.5 48.5L648.5 51.5ZM694.5 51.5L717.5 51.5L717.5 48.5L694.5 48.5L694.5 51.5ZM740.5 51.5L763.5 51.5L763.5 48.5L740.5 48.5L740.5 51.5ZM786.5 51.5L809.5 51.5L809.5 48.5L786.5 48.5L786.5 51.5Z" fill="#0182FE"/>
<g clip-path="url(#clip0_432_139)">
<path d="M481 35.5C481.597 35.5 482.169 35.7371 482.591 36.159C483.013 36.581 483.25 37.1533 483.25 37.75C483.25 38.3467 483.013 38.919 482.591 39.341C482.169 39.7629 481.597 40 481 40H463C462.404 40 461.831 39.7629 461.409 39.341C460.987 38.919 460.75 38.3467 460.75 37.75C460.75 37.1533 460.987 36.581 461.409 36.159C461.831 35.7371 462.404 35.5 463 35.5H481ZM498.341 75.3408C497.919 75.7626 497.347 75.9995 496.75 75.9995C496.154 75.9995 495.582 75.7626 495.16 75.3408L489.744 69.925C488.14 70.9487 486.278 71.4949 484.375 71.5C482.373 71.5 480.415 70.9062 478.75 69.7936C477.085 68.6811 475.787 67.0998 475.021 65.2497C474.255 63.3996 474.054 61.3638 474.445 59.3997C474.836 57.4357 475.8 55.6316 477.216 54.2155C478.632 52.7995 480.436 51.8352 482.4 51.4445C484.364 51.0539 486.4 51.2544 488.25 52.0207C490.1 52.7871 491.681 54.0848 492.794 55.7499C493.907 57.4149 494.5 59.3725 494.5 61.375C494.495 63.2777 493.949 65.1396 492.925 66.7435L498.341 72.1592C498.763 72.5812 499 73.1534 499 73.75C499 74.3466 498.763 74.9188 498.341 75.3408ZM484.375 67C485.488 67 486.575 66.6701 487.5 66.052C488.425 65.4339 489.146 64.5554 489.572 63.5276C489.998 62.4998 490.109 61.3688 489.892 60.2776C489.675 59.1865 489.14 58.1842 488.353 57.3975C487.566 56.6109 486.564 56.0751 485.473 55.8581C484.382 55.641 483.251 55.7524 482.223 56.1782C481.195 56.6039 480.316 57.3249 479.698 58.2499C479.08 59.1749 478.75 60.2625 478.75 61.375C478.75 62.8668 479.343 64.2976 480.398 65.3525C481.453 66.4074 482.884 67 484.375 67ZM474.25 71.5H460.75C458.96 71.5 457.243 70.7888 455.977 69.523C454.712 68.2571 454 66.5402 454 64.75V33.25C454 31.4598 454.712 29.7429 455.977 28.477C457.243 27.2112 458.96 26.5 460.75 26.5H487.75C488.347 26.5 488.919 26.7371 489.341 27.159C489.763 27.581 490 28.1533 490 28.75V46.75C490 47.3467 490.237 47.919 490.659 48.341C491.081 48.7629 491.654 49 492.25 49C492.847 49 493.419 48.7629 493.841 48.341C494.263 47.919 494.5 47.3467 494.5 46.75V28.75C494.5 26.9598 493.789 25.2429 492.523 23.977C491.257 22.7112 489.541 22 487.75 22H460.75C457.768 22.0036 454.908 23.19 452.799 25.299C450.69 27.408 449.504 30.2674 449.5 33.25V64.75C449.504 67.7326 450.69 70.592 452.799 72.701C454.908 74.81 457.768 75.9964 460.75 76H474.25C474.847 76 475.419 75.7629 475.841 75.341C476.263 74.919 476.5 74.3467 476.5 73.75C476.5 73.1533 476.263 72.581 475.841 72.159C475.419 71.7371 474.847 71.5 474.25 71.5Z" fill="#0182FE"/>
</g>
<g clip-path="url(#clip1_432_139)">
<path d="M917.217 31.9698L886.125 63.0603C885.916 63.2701 885.667 63.4367 885.394 63.5503C885.12 63.6639 884.827 63.7224 884.531 63.7224C884.234 63.7224 883.941 63.6639 883.667 63.5503C883.394 63.4367 883.145 63.2701 882.936 63.0603L870.912 51.025C870.703 50.8151 870.455 50.6486 870.181 50.535C869.908 50.4214 869.615 50.3629 869.318 50.3629C869.022 50.3629 868.729 50.4214 868.455 50.535C868.182 50.6486 867.933 50.8151 867.724 51.025V51.025C867.514 51.2341 867.348 51.4825 867.234 51.7561C867.121 52.0296 867.062 52.3229 867.062 52.6191C867.062 52.9154 867.121 53.2087 867.234 53.4822C867.348 53.7558 867.514 54.0042 867.724 54.2133L879.753 66.2395C881.022 67.506 882.741 68.2174 884.534 68.2174C886.327 68.2174 888.046 67.506 889.315 66.2395L920.406 35.1558C920.615 34.9468 920.781 34.6985 920.895 34.4251C921.008 34.1518 921.067 33.8587 921.067 33.5628C921.067 33.2668 921.008 32.9738 920.895 32.7004C920.781 32.4271 920.615 32.1788 920.406 31.9698C920.197 31.7599 919.948 31.5934 919.675 31.4797C919.401 31.3661 919.108 31.3076 918.812 31.3076C918.515 31.3076 918.222 31.3661 917.948 31.4797C917.675 31.5934 917.426 31.7599 917.217 31.9698Z" fill="#0182FE"/>
</g>
<g clip-path="url(#clip2_432_139)">
<path d="M77.0001 52.8703C76.9947 51.295 76.6467 49.7413 75.982 48.3252C75.3173 46.9091 74.3532 45.6673 73.1616 44.6924C74.8102 43.3429 76.012 41.4926 76.5993 39.3998C77.1867 37.3069 77.1304 35.0759 76.4383 33.0179C75.7462 30.9598 74.4527 29.1775 72.7383 27.9194C71.024 26.6614 68.9743 25.9904 66.8751 26.0001H33.1251C31.0259 25.9904 28.9762 26.6614 27.2619 27.9194C25.5475 29.1775 24.2541 30.9598 23.5619 33.0179C22.8698 35.0759 22.8135 37.3069 23.4009 39.3998C23.9883 41.4926 25.1901 43.3429 26.8386 44.6924C25.6428 45.6634 24.6757 46.9044 24.0106 48.3214C23.3454 49.7383 22.9997 51.294 22.9997 52.8703C22.9997 54.4466 23.3454 56.0023 24.0106 57.4192C24.6757 58.8361 25.6428 60.0772 26.8386 61.0482C25.1901 62.3977 23.9883 64.248 23.4009 66.3408C22.8135 68.4337 22.8698 70.6647 23.5619 72.7227C24.2541 74.7808 25.5475 76.5631 27.2619 77.8211C28.9762 79.0792 31.0259 79.7502 33.1251 79.7405H66.8751C68.9743 79.7502 71.024 79.0792 72.7383 77.8211C74.4527 76.5631 75.7462 74.7808 76.4383 72.7227C77.1304 70.6647 77.1867 68.4337 76.5993 66.3408C76.012 64.248 74.8102 62.3977 73.1616 61.0482C74.3532 60.0733 75.3173 58.8314 75.982 57.4154C76.6467 55.9993 76.9947 54.4456 77.0001 52.8703ZM27.5001 36.5145C27.5001 34.9653 28.0927 33.4795 29.1476 32.3841C30.2025 31.2886 31.6333 30.6732 33.1251 30.6732H34.2501V33.0097C34.2501 33.6294 34.4872 34.2237 34.9091 34.6619C35.3311 35.1001 35.9034 35.3463 36.5001 35.3463C37.0968 35.3463 37.6691 35.1001 38.0911 34.6619C38.5131 34.2237 38.7501 33.6294 38.7501 33.0097V30.6732H43.2501V33.0097C43.2501 33.6294 43.4872 34.2237 43.9091 34.6619C44.3311 35.1001 44.9034 35.3463 45.5001 35.3463C46.0968 35.3463 46.6691 35.1001 47.0911 34.6619C47.5131 34.2237 47.7501 33.6294 47.7501 33.0097V30.6732H66.8751C68.367 30.6732 69.7977 31.2886 70.8526 32.3841C71.9075 33.4795 72.5001 34.9653 72.5001 36.5145C72.5001 38.0637 71.9075 39.5495 70.8526 40.645C69.7977 41.7404 68.367 42.3559 66.8751 42.3559H33.1251C31.6333 42.3559 30.2025 41.7404 29.1476 40.645C28.0927 39.5495 27.5001 38.0637 27.5001 36.5145V36.5145ZM72.5001 69.2261C72.5001 70.7753 71.9075 72.2611 70.8526 73.3565C69.7977 74.452 68.367 75.0674 66.8751 75.0674H33.1251C31.6333 75.0674 30.2025 74.452 29.1476 73.3565C28.0927 72.2611 27.5001 70.7753 27.5001 69.2261C27.5001 67.6768 28.0927 66.1911 29.1476 65.0956C30.2025 64.0001 31.6333 63.3847 33.1251 63.3847H34.2501V65.7213C34.2501 66.3409 34.4872 66.9353 34.9091 67.3734C35.3311 67.8116 35.9034 68.0578 36.5001 68.0578C37.0968 68.0578 37.6691 67.8116 38.0911 67.3734C38.5131 66.9353 38.7501 66.3409 38.7501 65.7213V63.3847H43.2501V65.7213C43.2501 66.3409 43.4872 66.9353 43.9091 67.3734C44.3311 67.8116 44.9034 68.0578 45.5001 68.0578C46.0968 68.0578 46.6691 67.8116 47.0911 67.3734C47.5131 66.9353 47.7501 66.3409 47.7501 65.7213V63.3847H66.8751C68.367 63.3847 69.7977 64.0001 70.8526 65.0956C71.9075 66.1911 72.5001 67.6768 72.5001 69.2261ZM33.1251 58.7116C31.6333 58.7116 30.2025 58.0962 29.1476 57.0008C28.0927 55.9053 27.5001 54.4195 27.5001 52.8703C27.5001 51.3211 28.0927 49.8353 29.1476 48.7398C30.2025 47.6444 31.6333 47.0289 33.1251 47.0289H34.2501V49.3655C34.2501 49.9852 34.4872 50.5795 34.9091 51.0177C35.3311 51.4559 35.9034 51.702 36.5001 51.702C37.0968 51.702 37.6691 51.4559 38.0911 51.0177C38.5131 50.5795 38.7501 49.9852 38.7501 49.3655V47.0289H43.2501V49.3655C43.2501 49.9852 43.4872 50.5795 43.9091 51.0177C44.3311 51.4559 44.9034 51.702 45.5001 51.702C46.0968 51.702 46.6691 51.4559 47.0911 51.0177C47.5131 50.5795 47.7501 49.9852 47.7501 49.3655V47.0289H66.8751C68.367 47.0289 69.7977 47.6444 70.8526 48.7398C71.9075 49.8353 72.5001 51.3211 72.5001 52.8703C72.5001 54.4195 71.9075 55.9053 70.8526 57.0008C69.7977 58.0962 68.367 58.7116 66.8751 58.7116H33.1251Z" fill="#0182FE"/>
</g>
<defs>
<clipPath id="clip0_432_139">
<rect width="54" height="54" fill="white" transform="translate(445 22)"/>
</clipPath>
<clipPath id="clip1_432_139">
<rect width="54" height="54" fill="white" transform="translate(867 22)"/>
</clipPath>
<clipPath id="clip2_432_139">
<rect width="54" height="56.0769" fill="white" transform="translate(23 26)"/>
</clipPath>
</defs>
</svg>
