<svg xmlns="http://www.w3.org/2000/svg" xmlns:xlink="http://www.w3.org/1999/xlink" width="144" zoomAndPan="magnify" viewBox="0 0 108 107.999999" height="144" preserveAspectRatio="xMidYMid meet" version="1.0"><defs><clipPath id="3632bc96a4"><path d="M 54 0 C 24.175781 0 0 24.175781 0 54 C 0 83.824219 24.175781 108 54 108 C 83.824219 108 108 83.824219 108 54 C 108 24.175781 83.824219 0 54 0 Z M 54 0 " clip-rule="nonzero"/></clipPath><clipPath id="c26a9c992e"><path d="M 18 0 L 108 0 L 108 90 L 18 90 Z M 18 0 " clip-rule="nonzero"/></clipPath><clipPath id="ccf4a2d240"><path d="M 63 0 C 38.148438 0 18 20.148438 18 45 C 18 69.851562 38.148438 90 63 90 C 87.851562 90 108 69.851562 108 45 C 108 20.148438 87.851562 0 63 0 Z M 63 0 " clip-rule="nonzero"/></clipPath><clipPath id="77a55c8fdc"><path d="M 18 27 L 84 27 L 84 93 L 18 93 Z M 18 27 " clip-rule="nonzero"/></clipPath><clipPath id="4f1f7d899f"><path d="M 51 27 C 32.773438 27 18 41.773438 18 60 C 18 78.226562 32.773438 93 51 93 C 69.226562 93 84 78.226562 84 60 C 84 41.773438 69.226562 27 51 27 Z M 51 27 " clip-rule="nonzero"/></clipPath></defs><g clip-path="url(#3632bc96a4)"><rect x="-10.8" width="129.6" fill="#6acad4" y="-10.8" height="129.599998" fill-opacity="1"/></g><g clip-path="url(#c26a9c992e)"><g clip-path="url(#ccf4a2d240)"><path fill="#5271ff" d="M 18 0 L 108 0 L 108 90 L 18 90 Z M 18 0 " fill-opacity="1" fill-rule="nonzero"/></g></g><g clip-path="url(#77a55c8fdc)"><g clip-path="url(#4f1f7d899f)"><path fill="#6acad4" d="M 18 27 L 84 27 L 84 93 L 18 93 Z M 18 27 " fill-opacity="1" fill-rule="nonzero"/></g></g></svg>