<svg xmlns="http://www.w3.org/2000/svg" xmlns:xlink="http://www.w3.org/1999/xlink" width="376" zoomAndPan="magnify" viewBox="0 0 282 91.5" height="122" preserveAspectRatio="xMidYMid meet" version="1.0"><defs><g/><clipPath id="de8ab8426a"><path d="M 0.765625 0 L 88.804688 0 L 88.804688 90.445312 L 0.765625 90.445312 Z M 0.765625 0 " clip-rule="nonzero"/></clipPath><clipPath id="227fdf57b3"><path d="M 44.785156 0 C 20.472656 0 0.765625 20.230469 0.765625 45.1875 C 0.765625 70.144531 20.472656 90.375 44.785156 90.375 C 69.09375 90.375 88.804688 70.144531 88.804688 45.1875 C 88.804688 20.230469 69.09375 0 44.785156 0 Z M 44.785156 0 " clip-rule="nonzero"/></clipPath><clipPath id="897831a501"><path d="M 15.4375 0 L 88.804688 0 L 88.804688 75.371094 L 15.4375 75.371094 Z M 15.4375 0 " clip-rule="nonzero"/></clipPath><clipPath id="3bc68116fa"><path d="M 52.121094 0 C 31.863281 0 15.4375 16.859375 15.4375 37.65625 C 15.4375 58.453125 31.863281 75.3125 52.121094 75.3125 C 72.378906 75.3125 88.804688 58.453125 88.804688 37.65625 C 88.804688 16.859375 72.378906 0 52.121094 0 Z M 52.121094 0 " clip-rule="nonzero"/></clipPath><clipPath id="56198f0351"><path d="M 15.4375 22.59375 L 69.238281 22.59375 L 69.238281 77.863281 L 15.4375 77.863281 Z M 15.4375 22.59375 " clip-rule="nonzero"/></clipPath><clipPath id="e20b258ea1"><path d="M 42.339844 22.59375 C 27.484375 22.59375 15.4375 34.957031 15.4375 50.207031 C 15.4375 65.457031 27.484375 77.820312 42.339844 77.820312 C 57.195312 77.820312 69.238281 65.457031 69.238281 50.207031 C 69.238281 34.957031 57.195312 22.59375 42.339844 22.59375 Z M 42.339844 22.59375 " clip-rule="nonzero"/></clipPath><clipPath id="1686e888a5"><path d="M 161.425781 40.835938 L 180.671875 40.835938 L 180.671875 60.082031 L 161.425781 60.082031 Z M 161.425781 40.835938 " clip-rule="nonzero"/></clipPath><clipPath id="fff252bef7"><path d="M 171.050781 40.835938 C 165.734375 40.835938 161.425781 45.144531 161.425781 50.460938 C 161.425781 55.773438 165.734375 60.082031 171.050781 60.082031 C 176.363281 60.082031 180.671875 55.773438 180.671875 50.460938 C 180.671875 45.144531 176.363281 40.835938 171.050781 40.835938 Z M 171.050781 40.835938 " clip-rule="nonzero"/></clipPath></defs><g clip-path="url(#de8ab8426a)"><g clip-path="url(#227fdf57b3)"><path fill="#ffffff" d="M 0.765625 0 L 88.804688 0 L 88.804688 90.445312 L 0.765625 90.445312 Z M 0.765625 0 " fill-opacity="1" fill-rule="nonzero"/></g></g><g clip-path="url(#897831a501)"><g clip-path="url(#3bc68116fa)"><path fill="#5271ff" d="M 15.4375 0 L 88.804688 0 L 88.804688 75.371094 L 15.4375 75.371094 Z M 15.4375 0 " fill-opacity="1" fill-rule="nonzero"/></g></g><g clip-path="url(#56198f0351)"><g clip-path="url(#e20b258ea1)"><path fill="#ffffff" d="M 15.4375 22.59375 L 69.238281 22.59375 L 69.238281 77.863281 L 15.4375 77.863281 Z M 15.4375 22.59375 " fill-opacity="1" fill-rule="nonzero"/></g></g><g fill="#ffffff" fill-opacity="1"><g transform="translate(98.847034, 60.595648)"><g><path d="M 14.078125 0.484375 C 19.828125 0.484375 26.71875 -1.984375 26.71875 -10.03125 C 26.71875 -17.078125 21.515625 -18.671875 16.734375 -19.734375 C 12.96875 -20.546875 9.546875 -20.9375 9.546875 -24.0625 C 9.546875 -26.28125 11.234375 -27.390625 13.796875 -27.390625 C 16.203125 -27.390625 18.09375 -26.4375 18.625 -23.734375 C 18.71875 -23.109375 19.046875 -22.8125 19.625 -22.8125 L 24.84375 -22.8125 C 25.46875 -22.8125 25.8125 -23.15625 25.75 -23.828125 C 25.234375 -30.53125 19.4375 -33.28125 13.9375 -33.28125 C 8.203125 -33.28125 2.3125 -30.1875 2.3125 -23.0625 C 2.3125 -17.078125 6.46875 -15.34375 10.375 -14.28125 C 14.859375 -13.078125 19.484375 -12.875 19.484375 -8.96875 C 19.484375 -6.265625 17.21875 -5.40625 14.8125 -5.40625 C 11.671875 -5.40625 9.3125 -6.890625 8.875 -9.890625 C 8.828125 -10.46875 8.484375 -10.796875 7.90625 -10.796875 L 2.265625 -10.796875 C 1.640625 -10.796875 1.296875 -10.46875 1.296875 -9.84375 C 1.6875 -2.515625 7.765625 0.484375 14.078125 0.484375 Z M 14.078125 0.484375 "/></g></g></g><g fill="#ffffff" fill-opacity="1"><g transform="translate(127.056821, 60.595648)"><g><path d="M 13.703125 -22.046875 C 6.5625 -22.046875 1.296875 -17.5625 1.296875 -10.609375 C 1.296875 -3.5625 6.359375 0.765625 13.703125 0.765625 C 19 0.765625 23.203125 -1.546875 24.890625 -6.359375 C 25.125 -7.046875 24.75 -7.46875 24.0625 -7.46875 L 18.71875 -7.46875 C 18.1875 -7.46875 17.890625 -7.1875 17.65625 -6.65625 C 17.078125 -5.359375 15.671875 -4.390625 13.546875 -4.390625 C 10.859375 -4.390625 9.171875 -6.3125 8.96875 -9.265625 L 24.5 -9.265625 C 25.125 -9.265625 25.46875 -9.59375 25.46875 -10.21875 L 25.46875 -11.09375 C 25.46875 -18.140625 20.15625 -22.046875 13.703125 -22.046875 Z M 9.0625 -13.171875 C 9.484375 -15.484375 10.78125 -17.125 13.453125 -17.125 C 16.015625 -17.125 17.65625 -15.484375 17.796875 -13.171875 Z M 9.0625 -13.171875 "/></g></g></g><g fill="#ffffff" fill-opacity="1"><g transform="translate(153.916405, 60.595648)"><g><path d="M 20.53125 -17.828125 C 18.640625 -20.453125 15.65625 -22.046875 12.015625 -22.046875 C 5.734375 -22.046875 1.40625 -17.359375 1.40625 -10.65625 C 1.40625 -3.90625 5.734375 0.765625 12.015625 0.765625 C 15.65625 0.765625 18.640625 -0.8125 20.53125 -3.46875 C 21.703125 -1.109375 23.734375 0.1875 26.53125 0.484375 L 26.53125 -21.75 C 23.734375 -21.46875 21.703125 -20.15625 20.53125 -17.828125 Z M 14.234375 -5.015625 C 11.28125 -5.015625 9.171875 -7.328125 9.171875 -10.609375 C 9.171875 -13.890625 11.28125 -16.203125 14.234375 -16.203125 C 17.171875 -16.203125 19.296875 -13.890625 19.296875 -10.609375 C 19.296875 -7.328125 17.171875 -5.015625 14.234375 -5.015625 Z M 14.234375 -5.015625 "/></g></g></g><g fill="#ffffff" fill-opacity="1"><g transform="translate(182.801312, 60.595648)"><g><path d="M 15.09375 -36.171875 C 11.390625 -36.171875 4.875 -33.765625 4.875 -24.3125 L 4.875 -21.265625 L 1.78125 -21.265625 C 1.15625 -21.265625 0.8125 -20.9375 0.8125 -20.3125 L 0.8125 -16.640625 C 0.8125 -16.015625 1.15625 -15.671875 1.78125 -15.671875 L 4.875 -15.671875 L 4.875 -0.96875 C 4.875 -0.34375 5.203125 0 5.84375 0 L 11.140625 0 C 11.765625 0 12.109375 -0.34375 12.109375 -0.96875 L 12.109375 -15.671875 L 15.484375 -15.671875 C 16.109375 -15.671875 16.453125 -16.015625 16.453125 -16.640625 L 16.453125 -20.3125 C 16.453125 -20.9375 16.109375 -21.265625 15.484375 -21.265625 L 12.109375 -21.265625 L 12.109375 -24.3125 C 12.109375 -28.609375 13.65625 -29.5625 16.109375 -29.5625 C 16.734375 -29.5625 17.078125 -29.90625 17.078125 -30.53125 L 17.078125 -35.21875 C 17.078125 -35.84375 16.734375 -36.171875 16.109375 -36.171875 Z M 15.09375 -36.171875 "/></g></g></g><g fill="#ffffff" fill-opacity="1"><g transform="translate(199.582533, 60.595648)"><g><path d="M 13.703125 -22.046875 C 6.5625 -22.046875 1.296875 -17.5625 1.296875 -10.609375 C 1.296875 -3.5625 6.359375 0.765625 13.703125 0.765625 C 19 0.765625 23.203125 -1.546875 24.890625 -6.359375 C 25.125 -7.046875 24.75 -7.46875 24.0625 -7.46875 L 18.71875 -7.46875 C 18.1875 -7.46875 17.890625 -7.1875 17.65625 -6.65625 C 17.078125 -5.359375 15.671875 -4.390625 13.546875 -4.390625 C 10.859375 -4.390625 9.171875 -6.3125 8.96875 -9.265625 L 24.5 -9.265625 C 25.125 -9.265625 25.46875 -9.59375 25.46875 -10.21875 L 25.46875 -11.09375 C 25.46875 -18.140625 20.15625 -22.046875 13.703125 -22.046875 Z M 9.0625 -13.171875 C 9.484375 -15.484375 10.78125 -17.125 13.453125 -17.125 C 16.015625 -17.125 17.65625 -15.484375 17.796875 -13.171875 Z M 9.0625 -13.171875 "/></g></g></g><g fill="#ffffff" fill-opacity="1"><g transform="translate(226.442117, 60.595648)"><g><path d="M 11.859375 -21.265625 L 11.859375 -30.4375 C 7.1875 -29.46875 4.625 -26.234375 4.625 -21.265625 L 1.546875 -21.265625 C 0.921875 -21.265625 0.578125 -20.9375 0.578125 -20.3125 L 0.578125 -16.640625 C 0.578125 -16.015625 0.921875 -15.671875 1.546875 -15.671875 L 4.625 -15.671875 L 4.625 -0.96875 C 4.625 -0.34375 4.96875 0 5.59375 0 L 10.90625 0 C 11.53125 0 11.859375 -0.34375 11.859375 -0.96875 L 11.859375 -15.671875 L 15 -15.671875 C 15.625 -15.671875 15.96875 -16.015625 15.96875 -16.640625 L 15.96875 -20.3125 C 15.96875 -20.9375 15.625 -21.265625 15 -21.265625 Z M 11.859375 -21.265625 "/></g></g></g><g fill="#ffffff" fill-opacity="1"><g transform="translate(242.982226, 60.595648)"><g><path d="M 4.671875 12.0625 C 9.84375 12.0625 13.078125 9.640625 15.09375 4.4375 L 25.171875 -21.75 C 20.203125 -21.75 16.9375 -19.296875 15.140625 -13.9375 L 12.546875 -6.078125 L 7.8125 -20.5 C 7.625 -21.03125 7.234375 -21.265625 6.703125 -21.265625 L 1.40625 -21.265625 C 0.671875 -21.265625 0.390625 -20.84375 0.625 -20.15625 L 8.875 1.546875 Z M 4.671875 12.0625 "/></g></g></g><g clip-path="url(#1686e888a5)"><g clip-path="url(#fff252bef7)"><path fill="#ffffff" d="M 161.425781 40.835938 L 180.671875 40.835938 L 180.671875 60.082031 L 161.425781 60.082031 Z M 161.425781 40.835938 " fill-opacity="1" fill-rule="nonzero"/></g></g></svg>