<svg xmlns="http://www.w3.org/2000/svg" xmlns:xlink="http://www.w3.org/1999/xlink" width="482" zoomAndPan="magnify" viewBox="0 0 361.5 111.749996" height="149" preserveAspectRatio="xMidYMid meet" version="1.0"><defs><g/><clipPath id="313f062642"><path d="M 0.152344 3.679688 L 107.914062 3.679688 L 107.914062 111.441406 L 0.152344 111.441406 Z M 0.152344 3.679688 " clip-rule="nonzero"/></clipPath><clipPath id="f5a7b8bb07"><path d="M 54.035156 3.679688 C 24.277344 3.679688 0.152344 27.804688 0.152344 57.5625 C 0.152344 87.316406 24.277344 111.441406 54.035156 111.441406 C 83.789062 111.441406 107.914062 87.316406 107.914062 57.5625 C 107.914062 27.804688 83.789062 3.679688 54.035156 3.679688 Z M 54.035156 3.679688 " clip-rule="nonzero"/></clipPath><clipPath id="d690c4edbc"><path d="M 18.113281 3.679688 L 107.914062 3.679688 L 107.914062 93.480469 L 18.113281 93.480469 Z M 18.113281 3.679688 " clip-rule="nonzero"/></clipPath><clipPath id="c22393286d"><path d="M 63.011719 3.679688 C 38.214844 3.679688 18.113281 23.785156 18.113281 48.582031 C 18.113281 73.378906 38.214844 93.480469 63.011719 93.480469 C 87.8125 93.480469 107.914062 73.378906 107.914062 48.582031 C 107.914062 23.785156 87.8125 3.679688 63.011719 3.679688 Z M 63.011719 3.679688 " clip-rule="nonzero"/></clipPath><clipPath id="bf850d8496"><path d="M 18.113281 30.621094 L 83.964844 30.621094 L 83.964844 96.472656 L 18.113281 96.472656 Z M 18.113281 30.621094 " clip-rule="nonzero"/></clipPath><clipPath id="7151ff7c66"><path d="M 51.039062 30.621094 C 32.855469 30.621094 18.113281 45.363281 18.113281 63.546875 C 18.113281 81.730469 32.855469 96.472656 51.039062 96.472656 C 69.226562 96.472656 83.964844 81.730469 83.964844 63.546875 C 83.964844 45.363281 69.226562 30.621094 51.039062 30.621094 Z M 51.039062 30.621094 " clip-rule="nonzero"/></clipPath><clipPath id="bc3eb2a585"><path d="M 197.0625 49.457031 L 223.195312 49.457031 L 223.195312 75.589844 L 197.0625 75.589844 Z M 197.0625 49.457031 " clip-rule="nonzero"/></clipPath><clipPath id="2604c197d5"><path d="M 210.128906 49.457031 C 202.914062 49.457031 197.0625 55.308594 197.0625 62.523438 C 197.0625 69.742188 202.914062 75.589844 210.128906 75.589844 C 217.34375 75.589844 223.195312 69.742188 223.195312 62.523438 C 223.195312 55.308594 217.34375 49.457031 210.128906 49.457031 Z M 210.128906 49.457031 " clip-rule="nonzero"/></clipPath></defs><g clip-path="url(#313f062642)"><g clip-path="url(#f5a7b8bb07)"><path fill="#6acad4" d="M 0.152344 3.679688 L 107.914062 3.679688 L 107.914062 111.441406 L 0.152344 111.441406 Z M 0.152344 3.679688 " fill-opacity="1" fill-rule="nonzero"/></g></g><g clip-path="url(#d690c4edbc)"><g clip-path="url(#c22393286d)"><path fill="#5271ff" d="M 18.113281 3.679688 L 107.914062 3.679688 L 107.914062 93.480469 L 18.113281 93.480469 Z M 18.113281 3.679688 " fill-opacity="1" fill-rule="nonzero"/></g></g><g clip-path="url(#bf850d8496)"><g clip-path="url(#7151ff7c66)"><path fill="#6acad4" d="M 18.113281 30.621094 L 83.964844 30.621094 L 83.964844 96.472656 L 18.113281 96.472656 Z M 18.113281 30.621094 " fill-opacity="1" fill-rule="nonzero"/></g></g><g fill="#0080ff" fill-opacity="1"><g transform="translate(121.854985, 75.404288)"><g><path d="M 18.4375 0.625 C 25.953125 0.625 34.984375 -2.59375 34.984375 -13.140625 C 34.984375 -22.359375 28.15625 -24.4375 21.90625 -25.828125 C 16.984375 -26.890625 12.5 -27.40625 12.5 -31.5 C 12.5 -34.40625 14.71875 -35.859375 18.0625 -35.859375 C 21.21875 -35.859375 23.671875 -34.59375 24.375 -31.0625 C 24.5 -30.25 24.9375 -29.859375 25.703125 -29.859375 L 32.515625 -29.859375 C 33.34375 -29.859375 33.78125 -30.3125 33.71875 -31.1875 C 33.015625 -39.96875 25.453125 -43.5625 18.25 -43.5625 C 10.734375 -43.5625 3.03125 -39.53125 3.03125 -30.1875 C 3.03125 -22.359375 8.453125 -20.078125 13.578125 -18.6875 C 19.453125 -17.109375 25.515625 -16.859375 25.515625 -11.75 C 25.515625 -8.203125 22.546875 -7.078125 19.390625 -7.078125 C 15.28125 -7.078125 12.1875 -9.03125 11.625 -12.9375 C 11.5625 -13.703125 11.109375 -14.140625 10.359375 -14.140625 L 2.96875 -14.140625 C 2.140625 -14.140625 1.703125 -13.703125 1.703125 -12.875 C 2.203125 -3.28125 10.171875 0.625 18.4375 0.625 Z M 18.4375 0.625 "/></g></g></g><g fill="#0080ff" fill-opacity="1"><g transform="translate(158.789928, 75.404288)"><g><path d="M 17.9375 -28.859375 C 8.59375 -28.859375 1.703125 -22.984375 1.703125 -13.890625 C 1.703125 -4.671875 8.328125 1.015625 17.9375 1.015625 C 24.875 1.015625 30.375 -2.015625 32.578125 -8.328125 C 32.890625 -9.21875 32.390625 -9.78125 31.5 -9.78125 L 24.5 -9.78125 C 23.796875 -9.78125 23.421875 -9.40625 23.109375 -8.71875 C 22.359375 -7.015625 20.515625 -5.75 17.75 -5.75 C 14.203125 -5.75 12 -8.265625 11.75 -12.125 L 32.078125 -12.125 C 32.890625 -12.125 33.34375 -12.5625 33.34375 -13.390625 L 33.34375 -14.515625 C 33.34375 -23.734375 26.390625 -28.859375 17.9375 -28.859375 Z M 11.875 -17.234375 C 12.40625 -20.265625 14.109375 -22.421875 17.609375 -22.421875 C 20.96875 -22.421875 23.109375 -20.265625 23.296875 -17.234375 Z M 11.875 -17.234375 "/></g></g></g><g fill="#0080ff" fill-opacity="1"><g transform="translate(193.957056, 75.404288)"><g><path d="M 26.859375 -23.328125 C 24.40625 -26.765625 20.484375 -28.859375 15.71875 -28.859375 C 7.515625 -28.859375 1.828125 -22.734375 1.828125 -13.953125 C 1.828125 -5.109375 7.515625 1.015625 15.71875 1.015625 C 20.484375 1.015625 24.40625 -1.078125 26.859375 -4.546875 C 28.40625 -1.453125 31.0625 0.25 34.734375 0.625 L 34.734375 -28.46875 C 31.0625 -28.09375 28.40625 -26.390625 26.859375 -23.328125 Z M 18.625 -6.5625 C 14.78125 -6.5625 12 -9.59375 12 -13.890625 C 12 -18.1875 14.78125 -21.21875 18.625 -21.21875 C 22.484375 -21.21875 25.25 -18.1875 25.25 -13.890625 C 25.25 -9.59375 22.484375 -6.5625 18.625 -6.5625 Z M 18.625 -6.5625 "/></g></g></g><g fill="#0080ff" fill-opacity="1"><g transform="translate(231.775929, 75.404288)"><g><path d="M 19.765625 -47.359375 C 14.90625 -47.359375 6.375 -44.203125 6.375 -31.828125 L 6.375 -27.84375 L 2.34375 -27.84375 C 1.515625 -27.84375 1.078125 -27.40625 1.078125 -26.578125 L 1.078125 -21.78125 C 1.078125 -20.96875 1.515625 -20.515625 2.34375 -20.515625 L 6.375 -20.515625 L 6.375 -1.265625 C 6.375 -0.4375 6.8125 0 7.640625 0 L 14.578125 0 C 15.40625 0 15.84375 -0.4375 15.84375 -1.265625 L 15.84375 -20.515625 L 20.265625 -20.515625 C 21.09375 -20.515625 21.53125 -20.96875 21.53125 -21.78125 L 21.53125 -26.578125 C 21.53125 -27.40625 21.09375 -27.84375 20.265625 -27.84375 L 15.84375 -27.84375 L 15.84375 -31.828125 C 15.84375 -37.4375 17.875 -38.703125 21.09375 -38.703125 C 21.90625 -38.703125 22.359375 -39.140625 22.359375 -39.96875 L 22.359375 -46.09375 C 22.359375 -46.90625 21.90625 -47.359375 21.09375 -47.359375 Z M 19.765625 -47.359375 "/></g></g></g><g fill="#0080ff" fill-opacity="1"><g transform="translate(253.747502, 75.404288)"><g><path d="M 17.9375 -28.859375 C 8.59375 -28.859375 1.703125 -22.984375 1.703125 -13.890625 C 1.703125 -4.671875 8.328125 1.015625 17.9375 1.015625 C 24.875 1.015625 30.375 -2.015625 32.578125 -8.328125 C 32.890625 -9.21875 32.390625 -9.78125 31.5 -9.78125 L 24.5 -9.78125 C 23.796875 -9.78125 23.421875 -9.40625 23.109375 -8.71875 C 22.359375 -7.015625 20.515625 -5.75 17.75 -5.75 C 14.203125 -5.75 12 -8.265625 11.75 -12.125 L 32.078125 -12.125 C 32.890625 -12.125 33.34375 -12.5625 33.34375 -13.390625 L 33.34375 -14.515625 C 33.34375 -23.734375 26.390625 -28.859375 17.9375 -28.859375 Z M 11.875 -17.234375 C 12.40625 -20.265625 14.109375 -22.421875 17.609375 -22.421875 C 20.96875 -22.421875 23.109375 -20.265625 23.296875 -17.234375 Z M 11.875 -17.234375 "/></g></g></g><g fill="#0080ff" fill-opacity="1"><g transform="translate(288.91463, 75.404288)"><g><path d="M 15.53125 -27.84375 L 15.53125 -39.84375 C 9.40625 -38.578125 6.0625 -34.34375 6.0625 -27.84375 L 2.015625 -27.84375 C 1.203125 -27.84375 0.75 -27.40625 0.75 -26.578125 L 0.75 -21.78125 C 0.75 -20.96875 1.203125 -20.515625 2.015625 -20.515625 L 6.0625 -20.515625 L 6.0625 -1.265625 C 6.0625 -0.4375 6.5 0 7.328125 0 L 14.265625 0 C 15.09375 0 15.53125 -0.4375 15.53125 -1.265625 L 15.53125 -20.515625 L 19.640625 -20.515625 C 20.453125 -20.515625 20.90625 -20.96875 20.90625 -21.78125 L 20.90625 -26.578125 C 20.90625 -27.40625 20.453125 -27.84375 19.640625 -27.84375 Z M 15.53125 -27.84375 "/></g></g></g><g fill="#0080ff" fill-opacity="1"><g transform="translate(310.570517, 75.404288)"><g><path d="M 6.125 15.78125 C 12.875 15.78125 17.109375 12.625 19.765625 5.8125 L 32.953125 -28.46875 C 26.453125 -28.46875 22.15625 -25.25 19.828125 -18.25 L 16.421875 -7.953125 L 10.234375 -26.828125 C 9.96875 -27.53125 9.46875 -27.84375 8.78125 -27.84375 L 1.828125 -27.84375 C 0.890625 -27.84375 0.5 -27.28125 0.828125 -26.390625 L 11.625 2.015625 Z M 6.125 15.78125 "/></g></g></g><g clip-path="url(#bc3eb2a585)"><g clip-path="url(#2604c197d5)"><path fill="#0080ff" d="M 197.0625 49.457031 L 223.195312 49.457031 L 223.195312 75.589844 L 197.0625 75.589844 Z M 197.0625 49.457031 " fill-opacity="1" fill-rule="nonzero"/></g></g></svg>